# xmcd
#
# Track frame offsets: 
#        180
#        18259
#        41388
#        67016
#        85346
#        110772
#        132997
#        169332
#        193342
#        214171
#        235164
#
# Disc length: 3314 seconds
#
# Revision: 0
# Processed by: cddbd v1.5.2PL0 Copyright (c) Steve Scherf et al.
# Submitted via: ExactAudioCopy v0.99pb3
#
DISCID=9f0cf00b
DTITLE=Dick Powell Band - Blue Plate Special
DYEAR=1996
DGENRE=Blues
TTITLE0=Rocket '88
TTITLE1=Sweet Home Chicago
TTITLE2=The Sky Is Falling
TTITLE3=She Caught The Katy
TTITLE4=Good Bye My Lady
TTITLE5=Messin' With The Kid
TTITLE6=Walkin' Blues
TTITLE7=Can't Take My Blues
TTITLE8=Same Old Blues
TTITLE9=Lose The Blues
TTITLE10=Big Ten Inch
EXTD=
EXTT0=
EXTT1=
EXTT2=
EXTT3=
EXTT4=
EXTT5=
EXTT6=
EXTT7=
EXTT8=
EXTT9=
EXTT10=
PLAYORDER=
